<?xml version="1.0" encoding="iso-8859-1"?>
<!-- Generator: Adobe Illustrator 19.0.0, SVG Export Plug-In . SVG Version: 6.00 Build 0)  -->
<svg version="1.1" id="Capa_1" xmlns="http://www.w3.org/2000/svg" xmlns:xlink="http://www.w3.org/1999/xlink" x="0px" y="0px"
	 viewBox="0 0 409.605 409.605" style="enable-background:new 0 0 409.605 409.605;" xml:space="preserve">
<g>
	<g>
		<path d="M94.72,49.97c-24.675,0-44.747,20.075-44.747,44.75c0,24.67,20.073,44.745,44.747,44.745s44.747-20.075,44.747-44.745
			C139.467,70.045,119.395,49.97,94.72,49.97z M94.72,129.225c-19.027,0-34.508-15.48-34.508-34.505
			c0-19.03,15.48-34.51,34.508-34.51c19.028,0,34.508,15.48,34.508,34.51C129.227,113.745,113.747,129.225,94.72,129.225z"/>
	</g>
</g>
<g>
	<g>
		<path d="M184.855,108.955c-7.295-0.77-12.795-6.89-12.795-14.235c0-7.345,5.5-13.465,12.795-14.235
			c1.445-0.15,2.755-0.91,3.607-2.085c0.853-1.175,1.165-2.66,0.86-4.08c-2.453-11.42-6.925-22.21-13.295-32.065
			c-0.787-1.22-2.057-2.045-3.492-2.275c-1.415-0.23-2.895,0.16-4.027,1.075c-5.698,4.605-13.905,4.165-19.1-1.025
			c-5.188-5.19-5.628-13.4-1.022-19.095c0.912-1.13,1.302-2.595,1.072-4.03c-0.227-1.43-1.055-2.7-2.275-3.49
			c-9.845-6.37-20.633-10.845-32.065-13.3c-1.42-0.305-2.903,0.005-4.08,0.86c-1.175,0.85-1.935,2.165-2.087,3.61
			c-0.768,7.295-6.885,12.795-14.23,12.795c-7.347,0-13.465-5.5-14.232-12.795c-0.153-1.445-0.912-2.76-2.088-3.61
			c-1.175-0.85-2.655-1.155-4.08-0.86c-11.435,2.455-22.223,6.93-32.065,13.3c-1.218,0.79-2.045,2.06-2.273,3.495
			c-0.23,1.43,0.16,2.895,1.073,4.025C45.66,26.63,45.22,34.84,40.03,40.03c-5.185,5.195-13.4,5.63-19.097,1.025
			c-1.13-0.915-2.6-1.305-4.028-1.075c-1.435,0.23-2.705,1.055-3.492,2.275C7.04,52.115,2.565,62.9,0.115,74.32
			c-0.305,1.42,0.008,2.905,0.86,4.08c0.853,1.175,2.163,1.935,3.608,2.085c7.295,0.77,12.795,6.89,12.795,14.235
			c0,7.345-5.5,13.465-12.795,14.235c-1.445,0.15-2.755,0.91-3.608,2.085c-0.852,1.175-1.165,2.66-0.86,4.08
			c2.453,11.42,6.925,22.21,13.297,32.06c0.79,1.22,2.057,2.045,3.49,2.275c1.43,0.24,2.898-0.155,4.028-1.07
			c5.705-4.605,13.915-4.16,19.1,1.025c5.193,5.19,5.633,13.4,1.025,19.095c-0.912,1.13-1.302,2.595-1.073,4.03
			c0.227,1.43,1.055,2.7,2.275,3.49c9.852,6.37,20.64,10.845,32.062,13.3c0.355,0.075,0.717,0.115,1.075,0.115
			c1.07,0,2.122-0.335,3.005-0.975c1.175-0.85,1.935-2.165,2.088-3.61c0.768-7.295,6.885-12.795,14.232-12.795
			c7.345,0,13.463,5.5,14.23,12.795c0.152,1.445,0.912,2.76,2.087,3.61c1.18,0.86,2.67,1.16,4.08,0.86
			c11.42-2.455,22.208-6.93,32.065-13.3c1.22-0.79,2.047-2.06,2.275-3.49c0.23-1.435-0.16-2.9-1.072-4.03
			c-4.608-5.7-4.168-13.905,1.022-19.095c5.198-5.19,13.413-5.63,19.103-1.025c1.133,0.915,2.597,1.31,4.027,1.07
			c1.432-0.23,2.7-1.055,3.49-2.275c6.37-9.85,10.843-20.635,13.295-32.06c0.305-1.42-0.008-2.905-0.86-4.08
			C187.61,109.865,186.3,109.105,184.855,108.955z M170.035,137.325c-9.19-4.38-20.37-2.66-27.867,4.845
			c-7.5,7.495-9.217,18.675-4.842,27.86c-6.158,3.5-12.675,6.205-19.47,8.085c-3.402-9.595-12.522-16.295-23.135-16.295
			c-10.615,0-19.735,6.7-23.135,16.295c-6.797-1.88-13.315-4.59-19.47-8.08c4.372-9.19,2.657-20.37-4.845-27.865
			c-7.495-7.5-18.675-9.22-27.865-4.845c-3.495-6.155-6.2-12.675-8.08-19.47c9.595-3.4,16.292-12.52,16.292-23.135
			c0-10.61-6.7-19.735-16.292-23.135c1.88-6.795,4.585-13.315,8.08-19.47c9.19,4.375,20.372,2.66,27.865-4.845
			c7.5-7.5,9.215-18.68,4.845-27.865c6.15-3.49,12.665-6.195,19.47-8.08c3.4,9.595,12.52,16.295,23.135,16.295
			c10.613,0,19.735-6.7,23.135-16.295c6.8,1.885,13.32,4.59,19.47,8.08c-4.372,9.185-2.658,20.365,4.842,27.865
			c7.503,7.505,18.682,9.225,27.867,4.845c3.492,6.155,6.198,12.67,8.078,19.47c-9.595,3.4-16.292,12.52-16.292,23.135
			s6.698,19.735,16.292,23.135C176.232,124.655,173.527,131.17,170.035,137.325z"/>
	</g>
</g>
<g>
	<g>
		<path d="M273.35,210.23c-34.803,0-63.118,28.315-63.118,63.12s28.315,63.12,63.118,63.12s63.117-28.315,63.117-63.12
			S308.152,210.23,273.35,210.23z M273.35,326.23c-29.157,0-52.878-23.72-52.878-52.88c0-29.16,23.72-52.88,52.878-52.88
			c29.158,0,52.878,23.72,52.878,52.88C326.227,302.51,302.507,326.23,273.35,326.23z"/>
	</g>
</g>
<g>
	<g>
		<path d="M405.02,296.54c-11.885-1.255-20.847-11.22-20.847-23.19c0-11.97,8.963-21.935,20.847-23.19
			c1.445-0.15,2.758-0.91,3.61-2.085c0.852-1.175,1.165-2.66,0.86-4.08c-3.525-16.425-9.963-31.95-19.135-46.14
			c-0.787-1.22-2.057-2.045-3.492-2.275c-1.412-0.23-2.898,0.16-4.028,1.075c-9.287,7.51-22.667,6.785-31.122-1.665
			c-8.455-8.46-9.172-21.84-1.665-31.125c0.912-1.13,1.302-2.595,1.073-4.03c-0.228-1.43-1.055-2.7-2.275-3.49
			c-14.182-9.17-29.707-15.61-46.138-19.135c-1.427-0.3-2.907,0.005-4.08,0.86c-1.175,0.85-1.935,2.165-2.088,3.61
			c-1.25,11.885-11.22,20.85-23.19,20.85c-11.97,0-21.94-8.965-23.19-20.85c-0.152-1.445-0.912-2.76-2.087-3.61
			c-1.175-0.85-2.645-1.15-4.08-0.86c-16.43,3.525-31.955,9.965-46.138,19.135c-1.22,0.79-2.047,2.06-2.275,3.49
			c-0.23,1.435,0.16,2.9,1.072,4.03c7.508,9.285,6.79,22.665-1.665,31.125c-8.46,8.45-21.845,9.165-31.122,1.665
			c-1.13-0.915-2.6-1.305-4.028-1.075c-1.435,0.23-2.705,1.055-3.492,2.275c-9.172,14.19-15.61,29.715-19.135,46.14
			c-0.305,1.42,0.008,2.905,0.86,4.08c0.852,1.175,2.165,1.935,3.61,2.085c11.885,1.255,20.847,11.22,20.847,23.19
			c0,11.97-8.962,21.935-20.847,23.19c-1.445,0.15-2.758,0.91-3.61,2.085c-0.853,1.175-1.165,2.66-0.86,4.08
			c3.525,16.425,9.963,31.95,19.135,46.14c0.788,1.22,2.057,2.045,3.492,2.275c1.428,0.24,2.898-0.155,4.028-1.075
			c9.282-7.51,22.662-6.79,31.122,1.665c8.455,8.46,9.172,21.84,1.665,31.125c-0.912,1.13-1.302,2.595-1.072,4.03
			c0.227,1.43,1.055,2.7,2.275,3.49c14.182,9.17,29.708,15.61,46.138,19.135c1.425,0.29,2.905-0.01,4.08-0.86
			c1.175-0.85,1.935-2.165,2.087-3.61c1.25-11.885,11.22-20.85,23.19-20.85c11.97,0,21.94,8.965,23.19,20.85
			c0.153,1.445,0.913,2.76,2.088,3.61c0.883,0.64,1.935,0.975,3.005,0.975c0.357,0,0.717-0.04,1.075-0.115
			c16.43-3.525,31.955-9.965,46.138-19.135c1.22-0.79,2.047-2.06,2.275-3.49c0.23-1.435-0.16-2.9-1.073-4.03
			c-7.508-9.285-6.79-22.665,1.665-31.125c8.455-8.455,21.84-9.165,31.122-1.665c1.13,0.92,2.615,1.315,4.028,1.075
			c1.435-0.23,2.705-1.055,3.492-2.275c9.172-14.19,15.61-29.715,19.135-46.14c0.305-1.42-0.008-2.905-0.86-4.08
			C407.777,297.45,406.465,296.69,405.02,296.54z M384.497,338.85c-12.89-7.195-29.242-5.165-40.025,5.62
			c-10.785,10.785-12.818,27.14-5.62,40.03c-10.415,6.155-21.55,10.775-33.217,13.78c-4.015-14.215-17.02-24.35-32.285-24.35
			s-28.27,10.135-32.285,24.35c-11.668-3.005-22.802-7.625-33.218-13.78c7.198-12.89,5.163-29.245-5.62-40.03
			c-10.787-10.78-27.14-12.815-40.025-5.62c-6.16-10.415-10.78-21.555-13.783-33.215c14.215-4.02,24.348-17.02,24.348-32.285
			s-10.133-28.265-24.348-32.285c3.003-11.66,7.622-22.8,13.783-33.215c12.89,7.195,29.242,5.165,40.025-5.62
			c10.785-10.785,12.818-27.14,5.62-40.03c10.415-6.155,21.55-10.775,33.218-13.78c4.015,14.215,17.02,24.35,32.285,24.35
			s28.27-10.135,32.285-24.35c11.667,3.005,22.802,7.625,33.217,13.78c-7.198,12.89-5.162,29.245,5.62,40.03
			c10.79,10.785,27.145,12.82,40.025,5.62c6.16,10.415,10.78,21.555,13.782,33.215c-14.215,4.02-24.347,17.02-24.347,32.285
			s10.133,28.265,24.347,32.285C395.277,317.295,390.657,328.435,384.497,338.85z"/>
	</g>
</g>
<g>
</g>
<g>
</g>
<g>
</g>
<g>
</g>
<g>
</g>
<g>
</g>
<g>
</g>
<g>
</g>
<g>
</g>
<g>
</g>
<g>
</g>
<g>
</g>
<g>
</g>
<g>
</g>
<g>
</g>
</svg>
