<?xml version="1.0"?>
<svg xmlns="http://www.w3.org/2000/svg" xmlns:xlink="http://www.w3.org/1999/xlink" xmlns:svgjs="http://svgjs.com/svgjs" version="1.1" width="512" height="512" x="0" y="0" viewBox="0 0 64 64" style="enable-background:new 0 0 512 512" xml:space="preserve" class=""><g><g xmlns="http://www.w3.org/2000/svg" id="Email"><path d="m3 25v36l23.729-18.001z" fill="#ffffff" data-original="#ffcd00" style="" class=""/><path d="m32 3-7.91 6h15.82z" fill="#ffffff" data-original="#006df0" style="" class=""/><path d="m37.27 43 .001-.001-5.271-3.999-5.271 3.999.001.001-.001-.001-23.729 18.001h58l-23.729-18.001z" fill="#ffffff" data-original="#ebbf00" style="" class=""/><path d="m61 61v-36l-23.729 17.999z" fill="#ffffff" data-original="#ffda44" style="" class=""/><path d="m3 25 6 4.551v-9.101z" fill="#ffffff" data-original="#006df0" style="" class=""/><path d="m55 9v20.55l-17.73 13.45-5.27-4-5.27 4-17.73-13.45v-20.55z" fill="#dbdbdb" data-original="#ff3051" style="" class=""/><path d="m55 20.45v9.101l6-4.551z" fill="#ffffff" data-original="#006df0" style="" class=""/><path d="m26 61h35v-28c0 15.477-15.654 28-35 28z" fill="#ffffff" data-original="#ddb200" style="" class=""/><g fill="#231f20"><path d="m61.6 24.2-5.6-4.247v-10.953a1 1 0 0 0 -1-1h-14.753l-7.647-5.8a1 1 0 0 0 -1.208 0l-7.639 5.8h-14.753a1 1 0 0 0 -1 1v10.954l-5.6 4.246a1 1 0 0 0 -.4.8v36a1 1 0 0 0 1 1h58a1 1 0 0 0 1-1v-36a1 1 0 0 0 -.4-.8zm-57.6 2.814 21.074 15.986-21.074 15.986zm28 13.241 26.027 19.745h-52.054zm6.926 2.745 21.074-15.986v31.972zm20.419-18-3.345 2.537v-5.073zm-27.345-20.745 4.937 3.745h-9.874zm22 5.745v19.054l-16.729 12.689-4.671-3.543a1 1 0 0 0 -1.208 0l-4.667 3.541-16.725-12.687v-19.054zm-46 17.537-3.345-2.537 3.345-2.537z" fill="#231f20" data-original="#231f20" style="" class=""/><path d="m32 33h3a1 1 0 0 0 0-2h-3a7 7 0 1 1 7-7v2a1 1 0 0 1 -2 0v-2a5.024 5.024 0 1 0 -1.534 3.59 2.994 2.994 0 0 0 5.534-1.59v-2a9 9 0 1 0 -9 9zm0-6a3 3 0 1 1 3-3 3 3 0 0 1 -3 3z" fill="#231f20" data-original="#231f20" style="" class=""/></g></g></g></svg>
